<svg width="72" height="72" viewBox="0 0 72 72" fill="none" xmlns="http://www.w3.org/2000/svg">
<rect width="72" height="72" rx="36" fill="#3865F3" fill-opacity="0.15"/>
<path d="M36 46.6667C36.7364 46.6667 37.3334 46.0697 37.3334 45.3333C37.3334 44.597 36.7364 44 36 44C35.2636 44 34.6667 44.597 34.6667 45.3333C34.6667 46.0697 35.2636 46.6667 36 46.6667Z" fill="#FFC042"/>
<path d="M36.5867 34.6666L34.0533 32.1466L30.7733 28.8933L28.7067 26.8266L26.28 24.3866C26.1557 24.2623 26.0081 24.1637 25.8457 24.0964C25.6832 24.0291 25.5091 23.9945 25.3333 23.9945C25.1575 23.9945 24.9834 24.0291 24.821 24.0964C24.6586 24.1637 24.511 24.2623 24.3867 24.3866C24.1356 24.6377 23.9945 24.9782 23.9945 25.3333C23.9945 25.6884 24.1356 26.0289 24.3867 26.28L26.2267 28.1066L28.1733 30.0533L31.1467 33.04L33.2133 35.0933L36.8667 38.7466L40.5867 42.48L45.72 47.6133C45.844 47.7383 45.9914 47.8375 46.1539 47.9051C46.3164 47.9728 46.4907 48.0077 46.6667 48.0077C46.8427 48.0077 47.017 47.9728 47.1794 47.9051C47.3419 47.8375 47.4894 47.7383 47.6133 47.6133C47.7383 47.4893 47.8375 47.3419 47.9052 47.1794C47.9729 47.0169 48.0077 46.8426 48.0077 46.6666C48.0077 46.4906 47.9729 46.3163 47.9052 46.1539C47.8375 45.9914 47.7383 45.8439 47.6133 45.72L36.5867 34.6666ZM48.96 30.5733C45.4872 27.2055 40.8376 25.3255 36 25.3333C33.9873 25.3388 31.9885 25.6674 30.08 26.3066L32.24 28.4666C34.8557 27.813 37.5949 27.8374 40.1986 28.5373C42.8024 29.2372 45.1845 30.5896 47.12 32.4666C47.3672 32.7049 47.6967 32.8386 48.04 32.84C48.2196 32.8393 48.3972 32.8023 48.5622 32.7313C48.7272 32.6603 48.8761 32.5566 49 32.4266C49.235 32.1729 49.3622 31.8377 49.3548 31.4919C49.3473 31.1461 49.2058 30.8167 48.96 30.5733ZM25.0933 28.8666C24.3699 29.3869 23.6838 29.9572 23.04 30.5733C22.815 30.8235 22.6929 31.1495 22.6982 31.486C22.7036 31.8225 22.8359 32.1445 23.0687 32.3874C23.3016 32.6304 23.6177 32.7763 23.9536 32.7959C24.2895 32.8156 24.6205 32.7075 24.88 32.4933C25.5449 31.8649 26.2582 31.2898 27.0133 30.7733L25.0933 28.8666ZM42.6667 37.52C42.7902 37.6459 42.9374 37.7462 43.0999 37.8148C43.2624 37.8835 43.4369 37.9192 43.6133 37.92C43.8739 37.919 44.1285 37.8417 44.3456 37.6976C44.5627 37.5535 44.7328 37.3489 44.8349 37.1092C44.937 36.8695 44.9667 36.6051 44.9202 36.3488C44.8737 36.0924 44.7531 35.8552 44.5733 35.6666C43.4613 34.5143 42.1298 33.5962 40.6574 32.9665C39.185 32.3368 37.6014 32.0082 36 32H35.7867L38.92 35.1333C40.3428 35.6157 41.6281 36.4345 42.6667 37.52ZM29.9067 33.68C28.975 34.2226 28.1225 34.8912 27.3733 35.6666C27.1276 35.9265 26.9951 36.2734 27.0051 36.631C27.0151 36.9886 27.1668 37.3275 27.4267 37.5733C27.6866 37.8191 28.0335 37.9515 28.391 37.9415C28.7486 37.9315 29.0876 37.7799 29.3333 37.52C30.1101 36.7477 31.0117 36.1121 32 35.64L29.9067 33.68ZM31.3733 40.5333C31.1187 40.7791 30.9722 41.1159 30.9659 41.4697C30.9628 41.6449 30.9943 41.819 31.0585 41.982C31.1226 42.1451 31.2183 42.2939 31.34 42.42C31.4617 42.546 31.607 42.6469 31.7677 42.7168C31.9284 42.7867 32.1012 42.8243 32.2764 42.8274C32.6302 42.8336 32.9721 42.6991 33.2267 42.4533C33.9131 41.8202 34.7959 41.4418 35.7277 41.3811C36.6595 41.3204 37.584 41.5812 38.3467 42.12L34.9867 38.76C33.6283 38.9647 32.3663 39.584 31.3733 40.5333Z" fill="#FFC042"/>
</svg>
