<svg width="72" height="72" viewBox="0 0 72 72" fill="none" xmlns="http://www.w3.org/2000/svg">
<rect width="72" height="72" rx="36" fill="#3865F3" fill-opacity="0.15"/>
<path d="M41 22C42.6569 22 44 23.4103 44 25.15V46.85C44 48.5897 42.6569 50 41 50H31C29.3431 50 28 48.5897 28 46.85V25.15C28 23.4103 29.3431 22 31 22H41ZM41 24.1H31C30.4477 24.1 30 24.5701 30 25.15V46.85C30 47.4299 30.4477 47.9 31 47.9H41C41.5523 47.9 42 47.4299 42 46.85V25.15C42 24.5701 41.5523 24.1 41 24.1ZM37.6652 43.7C38.2174 43.6991 38.6658 44.1685 38.6667 44.7484C38.6675 45.3283 38.2205 45.7991 37.6682 45.8L34.3348 45.8053C33.7826 45.8061 33.3342 45.3367 33.3333 44.7568C33.3325 44.177 33.7795 43.7061 34.3318 43.7053L37.6652 43.7Z" fill="#FF4F60"/>
</svg>
