<svg width="72" height="72" viewBox="0 0 72 72" fill="none" xmlns="http://www.w3.org/2000/svg">
<rect width="72" height="72" rx="36" fill="#3865F3" fill-opacity="0.15"/>
<path d="M36 41.3334C36.7363 41.3334 37.3333 40.7365 37.3333 40.0001C37.3333 39.2637 36.7363 38.6667 36 38.6667C35.2636 38.6667 34.6666 39.2637 34.6666 40.0001C34.6666 40.7365 35.2636 41.3334 36 41.3334Z" fill="#3865F3"/>
<path d="M42.6666 30.6667H41.3333V28.1467C41.3333 26.7322 40.7714 25.3756 39.7712 24.3755C38.771 23.3753 37.4145 22.8134 36 22.8134C34.5855 22.8134 33.2289 23.3753 32.2287 24.3755C31.2285 25.3756 30.6666 26.7322 30.6666 28.1467V30.6667H29.3333C28.2724 30.6667 27.255 31.0881 26.5049 31.8383C25.7547 32.5884 25.3333 33.6058 25.3333 34.6667V45.3333C25.3333 46.3942 25.7547 47.4116 26.5049 48.1618C27.255 48.9119 28.2724 49.3333 29.3333 49.3333H42.6666C43.7275 49.3333 44.7449 48.9119 45.4951 48.1618C46.2452 47.4116 46.6666 46.3942 46.6666 45.3333V34.6667C46.6666 33.6058 46.2452 32.5884 45.4951 31.8383C44.7449 31.0881 43.7275 30.6667 42.6666 30.6667ZM33.3333 28.1467C33.3154 27.4204 33.5859 26.7166 34.0857 26.1894C34.5855 25.6621 35.2738 25.3543 36 25.3334C36.7262 25.3543 37.4145 25.6621 37.9143 26.1894C38.414 26.7166 38.6846 27.4204 38.6666 28.1467V30.6667H33.3333V28.1467ZM36 44C35.2089 44 34.4355 43.7654 33.7777 43.3259C33.1199 42.8864 32.6072 42.2617 32.3045 41.5308C32.0017 40.7998 31.9225 39.9956 32.0768 39.2197C32.2312 38.4437 32.6121 37.731 33.1716 37.1716C33.731 36.6122 34.4437 36.2312 35.2196 36.0769C35.9955 35.9225 36.7998 36.0017 37.5307 36.3045C38.2616 36.6073 38.8863 37.1199 39.3259 37.7777C39.7654 38.4355 40 39.2089 40 40C40 41.0609 39.5786 42.0783 38.8284 42.8284C38.0783 43.5786 37.0608 44 36 44Z" fill="#3865F3"/>
</svg>
